<?xml version="1.0" encoding="UTF-8"?>
<svg id="Layer_2" data-name="Layer 2" xmlns="http://www.w3.org/2000/svg" viewBox="0 0 415.91 415.91">
  <defs>
    <style>
      .cls-1 {
        fill: #4d4d4e;
      }

      .cls-2 {
        fill: #f6eb13;
      }
    </style>
  </defs>
  <g id="Text">
    <g>
      <path class="cls-1" d="M207.96,0C93.27,0,0,93.27,0,207.96s93.27,207.95,207.96,207.95,207.95-93.27,207.95-207.95S322.65,0,207.96,0ZM207.96,363.92c-43.05,0-83.18-17.15-112.92-48.35-29.63-31.09-44.92-72.05-42.84-115.21,3.64-78.39,67.9-143.38,146.19-148.06,3.12-.21,6.24-.31,9.36-.31,59.06,0,113.13,33.06,139.75,86.2,1.45,2.91,1.35,6.13-.11,9.04-1.56,3.12-4.36,5.1-7.69,5.72l-1.66.31c-15.19,2.5-26.1,15.39-26.1,30.68v48.03c0,15.29,10.91,28.18,26.1,30.68l1.66.31c3.33.62,6.13,2.6,7.69,5.61,1.46,3.02,1.46,6.35,0,9.26-26.62,53.13-80.06,86.09-139.43,86.09Z"/>
      <path class="cls-2" d="M339.7,262.96l-1.66-.31c-15.19-2.5-26.1-15.39-26.1-30.68v-48.03c0-15.29,10.91-28.18,26.1-30.68l1.66-.31c3.33-.62,6.13-2.6,7.69-5.72,1.46-2.91,1.56-6.13.11-9.04-26.62-53.14-80.69-86.2-139.75-86.2-3.12,0-6.24.1-9.36.31C120.1,56.98,55.84,121.97,52.2,200.36c-2.08,43.16,13.21,84.12,42.84,115.21,29.74,31.2,69.87,48.35,112.92,48.35,59.37,0,112.81-32.96,139.43-86.09,1.46-2.91,1.46-6.24,0-9.26-1.56-3.01-4.36-4.99-7.69-5.61ZM322.64,288.68c-28.95,41.81-79.86,66.05-133.62,58.45-75.83-10.73-128.7-81.02-117.97-156.85,42.82-28.98,104.31-20.28,137.41,19.44,22.31,26.81,57.57,39.5,91.26,36.03l.26.04c.2,7.21,4.96,13.84,12.09,16.08l1.42.46c11.07,3.49,15.76,16.77,9.15,26.35Z"/>
      <path class="cls-1" d="M322.64,288.68c-28.95,41.81-79.86,66.05-133.62,58.45-75.83-10.73-128.7-81.02-117.97-156.85,42.82-28.98,104.31-20.28,137.41,19.44,22.31,26.81,57.57,39.5,91.26,36.03l.26.04c.2,7.21,4.96,13.84,12.09,16.08l1.42.46c11.07,3.49,15.76,16.77,9.15,26.35Z"/>
    </g>
  </g>
</svg>