<?xml version="1.0" encoding="UTF-8"?>
<svg id="Layer_2" data-name="Layer 2" xmlns="http://www.w3.org/2000/svg" viewBox="0 0 2426.67 415.91">
  <g id="Text">
    <g>
      <g>
        <path d="M207.96,0C93.27,0,0,93.27,0,207.96s93.27,207.96,207.96,207.96,207.96-93.27,207.96-207.96S322.64,0,207.96,0ZM207.96,363.92c-43.05,0-83.18-17.16-112.92-48.35-29.63-31.09-44.92-72.06-42.84-115.21,3.64-78.4,67.9-143.39,146.19-148.06,3.12-.21,6.24-.31,9.36-.31,59.06,0,113.13,33.06,139.75,86.2,1.46,2.91,1.35,6.14-.1,9.05-1.56,3.12-4.37,5.09-7.69,5.72l-1.66.31c-15.18,2.5-26.1,15.39-26.1,30.67v48.04c0,15.28,10.92,28.18,26.1,30.67l1.66.31c3.33.62,6.13,2.6,7.69,5.61,1.46,3.02,1.46,6.34,0,9.25-26.62,53.13-80.06,86.09-139.43,86.09Z"/>
        <path d="M313.49,262.33l-1.42-.46c-7.13-2.23-11.89-8.86-12.09-16.08l-.26-.04c-33.69,3.47-68.95-9.23-91.26-36.04-33.1-39.72-94.59-48.42-137.41-19.44-10.73,75.83,42.14,146.12,117.97,156.85,53.76,7.61,104.67-16.64,133.62-58.45,6.61-9.58,1.92-22.85-9.15-26.35Z"/>
      </g>
      <g>
        <path d="M610.66,103.96v133.02c0,20.59-5.8,36.45-17.39,47.59-11.6,11.13-27.23,16.7-46.89,16.7s-37.11-5.84-49.53-17.53c-12.43-11.69-18.64-28.29-18.64-49.81h47.31c0,8.17,1.67,14.33,5.01,18.51,3.34,4.17,8.16,6.26,14.47,6.26,5.75,0,10.2-1.85,13.36-5.57,3.15-3.71,4.73-9.09,4.73-16.14V103.96h47.59Z"/>
        <path d="M802.39,144.03v155.28h-47.58v-21.15c-4.83,6.87-11.37,12.38-19.62,16.56-8.26,4.17-17.39,6.26-27.41,6.26-11.87,0-22.36-2.64-31.45-7.93-9.09-5.29-16.14-12.94-21.15-22.96-5.01-10.02-7.51-21.8-7.51-35.34v-90.72h47.31v84.32c0,10.39,2.69,18.46,8.07,24.21,5.38,5.75,12.61,8.63,21.7,8.63s16.6-2.87,21.98-8.63c5.38-5.75,8.07-13.82,8.07-24.21v-84.32h47.58Z"/>
        <path d="M974.78,160.03c10.85,11.78,16.28,27.97,16.28,48.56v90.72h-47.31v-84.32c0-10.39-2.69-18.46-8.07-24.21-5.38-5.75-12.62-8.63-21.71-8.63s-16.33,2.88-21.71,8.63c-5.38,5.75-8.07,13.82-8.07,24.21v84.32h-47.59v-155.28h47.59v20.59c4.82-6.86,11.31-12.29,19.48-16.28,8.16-3.99,17.34-5.98,27.55-5.98,18.18,0,32.7,5.89,43.55,17.67Z"/>
        <path d="M1169.71,233.08h-107.69c.74,9.65,3.85,17.02,9.32,22.12,5.47,5.1,12.2,7.65,20.18,7.65,11.87,0,20.13-5.01,24.77-15.03h50.65c-2.6,10.21-7.28,19.39-14.05,27.55-6.77,8.17-15.26,14.57-25.46,19.2-10.21,4.64-21.61,6.96-34.23,6.96-15.21,0-28.76-3.24-40.63-9.74-11.88-6.49-21.15-15.77-27.83-27.83-6.68-12.06-10.02-26.16-10.02-42.3s3.29-30.24,9.88-42.3c6.58-12.06,15.81-21.33,27.69-27.83,11.87-6.49,25.51-9.74,40.91-9.74s28.38,3.16,40.07,9.46c11.69,6.31,20.82,15.31,27.41,26.99,6.58,11.69,9.88,25.32,9.88,40.91,0,4.45-.28,9.09-.83,13.91ZM1121.85,206.65c0-8.16-2.78-14.65-8.35-19.48-5.57-4.82-12.52-7.24-20.87-7.24s-14.71,2.32-20.18,6.96c-5.47,4.64-8.86,11.23-10.16,19.76h59.55Z"/>
        <path d="M1243.18,262.58h62.33v36.73h-109.92V103.96h47.59v158.62Z"/>
        <path d="M1327.91,179.37c6.03-12.06,14.24-21.33,24.63-27.83,10.39-6.49,21.98-9.74,34.78-9.74,10.94,0,20.54,2.23,28.8,6.68,8.25,4.45,14.61,10.3,19.06,17.53v-21.98h47.58v155.28h-47.58v-21.98c-4.64,7.24-11.09,13.08-19.34,17.53-8.26,4.45-17.86,6.68-28.8,6.68-12.62,0-24.12-3.29-34.51-9.88-10.39-6.58-18.6-15.95-24.63-28.11-6.03-12.15-9.04-26.2-9.04-42.16s3.01-29.96,9.04-42.02ZM1425.31,193.57c-6.59-6.86-14.61-10.3-24.07-10.3s-17.49,3.39-24.07,10.16c-6.59,6.77-9.88,16.1-9.88,27.97s3.29,21.29,9.88,28.25c6.58,6.96,14.61,10.44,24.07,10.44s17.48-3.43,24.07-10.3c6.58-6.86,9.88-16.23,9.88-28.11s-3.3-21.24-9.88-28.11Z"/>
        <path d="M1670.6,144.03v155.28h-47.59v-21.15c-4.83,6.87-11.37,12.38-19.62,16.56-8.26,4.17-17.39,6.26-27.41,6.26-11.87,0-22.36-2.64-31.45-7.93-9.09-5.29-16.14-12.94-21.15-22.96-5.01-10.02-7.51-21.8-7.51-35.34v-90.72h47.31v84.32c0,10.39,2.69,18.46,8.07,24.21,5.38,5.75,12.61,8.63,21.7,8.63s16.6-2.87,21.98-8.63c5.38-5.75,8.07-13.82,8.07-24.21v-84.32h47.59Z"/>
        <path d="M1843,160.03c10.85,11.78,16.28,27.97,16.28,48.56v90.72h-47.31v-84.32c0-10.39-2.69-18.46-8.07-24.21-5.38-5.75-12.62-8.63-21.71-8.63s-16.33,2.88-21.7,8.63c-5.38,5.75-8.07,13.82-8.07,24.21v84.32h-47.59v-155.28h47.59v20.59c4.82-6.86,11.31-12.29,19.48-16.28,8.16-3.99,17.34-5.98,27.55-5.98,18.18,0,32.7,5.89,43.55,17.67Z"/>
        <path d="M1891.97,179.37c6.03-12.06,14.24-21.33,24.63-27.83,10.39-6.49,21.98-9.74,34.78-9.74,10.2,0,19.52,2.14,27.97,6.4,8.44,4.27,15.07,10.02,19.9,17.25v-72.07h47.58v205.93h-47.58v-22.26c-4.45,7.42-10.81,13.36-19.06,17.81-8.26,4.45-17.86,6.68-28.8,6.68-12.8,0-24.4-3.29-34.78-9.88-10.39-6.58-18.6-15.95-24.63-28.11-6.03-12.15-9.04-26.2-9.04-42.16s3.01-29.96,9.04-42.02ZM1989.37,193.57c-6.59-6.86-14.61-10.3-24.07-10.3s-17.49,3.39-24.07,10.16c-6.59,6.77-9.88,16.1-9.88,27.97s3.29,21.29,9.88,28.25c6.58,6.96,14.61,10.44,24.07,10.44s17.48-3.43,24.07-10.3c6.58-6.86,9.88-16.23,9.88-28.11s-3.3-21.24-9.88-28.11Z"/>
        <path d="M2149.79,149.74c8.35-4.91,17.62-7.37,27.83-7.37v50.37h-13.08c-11.87,0-20.78,2.55-26.71,7.65-5.94,5.1-8.9,14.05-8.9,26.85v72.07h-47.59v-155.28h47.59v25.88c5.57-8.53,12.52-15.26,20.87-20.17Z"/>
        <path d="M2359.06,144.03l-97.4,229.02h-51.2l35.62-79.03-63.17-149.99h53.15l35.9,97.12,35.62-97.12h51.48Z"/>
        <path d="M2378.11,294.16c-5.29-4.91-7.93-10.99-7.93-18.23s2.64-13.64,7.93-18.64c5.29-5.01,12.1-7.51,20.45-7.51s14.89,2.5,20.17,7.51c5.29,5.01,7.93,11.23,7.93,18.64s-2.64,13.31-7.93,18.23c-5.29,4.92-12.01,7.37-20.17,7.37s-15.17-2.46-20.45-7.37Z"/>
      </g>
    </g>
  </g>
</svg>